<svg width="16" height="17" viewBox="0 0 16 17" fill="none" xmlns="http://www.w3.org/2000/svg">
<path d="M7.65625 12.375C7.75 12.4688 7.875 12.5 8 12.5C8.09375 12.5 8.21875 12.4688 8.3125 12.375L12.8125 8.375C13.0312 8.21875 13.0312 7.875 12.8438 7.6875C12.6875 7.46875 12.3438 7.46875 12.1562 7.65625L8.5 10.9062V1C8.5 0.75 8.25 0.5 8 0.5C7.71875 0.5 7.5 0.75 7.5 1V10.9062L3.8125 7.65625C3.625 7.46875 3.28125 7.46875 3.125 7.6875C2.9375 7.875 2.9375 8.21875 3.15625 8.375L7.65625 12.375ZM14 10.5H12.5C12.2188 10.5 12 10.75 12 11C12 11.2812 12.2188 11.5 12.5 11.5H14C14.5312 11.5 15 11.9688 15 12.5V14.5C15 15.0625 14.5312 15.5 14 15.5H2C1.4375 15.5 1 15.0625 1 14.5V12.5C1 11.9688 1.4375 11.5 2 11.5H3.5C3.75 11.5 4 11.2812 4 11C4 10.75 3.75 10.5 3.5 10.5H2C0.875 10.5 0 11.4062 0 12.5V14.5C0 15.625 0.875 16.5 2 16.5H14C15.0938 16.5 16 15.625 16 14.5V12.5C16 11.4062 15.0938 10.5 14 10.5ZM13.75 13.5C13.75 13.0938 13.4062 12.75 13 12.75C12.5625 12.75 12.25 13.0938 12.25 13.5C12.25 13.9375 12.5625 14.25 13 14.25C13.4062 14.25 13.75 13.9375 13.75 13.5Z" fill="white"/>
</svg>
